<svg id="Layer_1" data-name="Layer 1" xmlns="http://www.w3.org/2000/svg" viewBox="0 0 30.24 30.27"><title>activity</title><path d="M27.06,11.11h-.33l.51-1a.73.73,0,0,0-.65-1.07H18.2a1,1,0,0,0-.88.53l-.79,1.52H13.27v-.55a.48.48,0,0,0-.48-.48h-.65a5.67,5.67,0,0,0-.55-1.32l.46-.47a.46.46,0,0,0,0-.67h0L10.6,6.17a.46.46,0,0,0-.67,0h0l-.47.46a5.67,5.67,0,0,0-1.32-.55V5.43A.48.48,0,0,0,7.66,5h-2a.47.47,0,0,0-.48.48v.65a5.67,5.67,0,0,0-1.32.55l-.47-.46a.46.46,0,0,0-.67,0L1.22,7.62a.46.46,0,0,0,0,.67h0l.46.47a5.67,5.67,0,0,0-.55,1.32H.47a.48.48,0,0,0-.47.48v2a.47.47,0,0,0,.47.48h.66a5.67,5.67,0,0,0,.55,1.32l-.46.47a.46.46,0,0,0,0,.67h0L2.67,17a.46.46,0,0,0,.67,0h0l.47-.46a5.67,5.67,0,0,0,1.32.55v.66a.47.47,0,0,0,.48.47H7.66a.48.48,0,0,0,.48-.47v-.66a5.67,5.67,0,0,0,1.32-.55l.47.46a.46.46,0,0,0,.67,0h0l1.45-1.45a.46.46,0,0,0,0-.67h0l-.46-.47a5.67,5.67,0,0,0,.55-1.32h.65a.47.47,0,0,0,.48-.48v-.55H16l-.51,1a.74.74,0,0,0,0,.72.7.7,0,0,0,.63.35h8.39a1,1,0,0,0,.88-.53l.79-1.52h.82a2.23,2.23,0,0,1,2.23,2.22v4.38a2.22,2.22,0,0,1-2.23,2.22h-6.6l.51-1a.74.74,0,0,0,0-.72.73.73,0,0,0-.63-.35H11.93a1,1,0,0,0-.88.53l-.79,1.52H3.17A3.18,3.18,0,0,0,0,24.06v4.37a3.18,3.18,0,0,0,3.17,3.18H3.5l-.51,1a.74.74,0,0,0,0,.72.73.73,0,0,0,.63.35H12a1,1,0,0,0,.88-.53l.79-1.52h4.95a4.1,4.1,0,1,0,0-.95H14.2l.51-1a.71.71,0,0,0,0-.72.74.74,0,0,0-.62-.35H5.66a1,1,0,0,0-.88.54L4,30.66H3.17A2.23,2.23,0,0,1,1,28.43V24.06a2.23,2.23,0,0,1,2.22-2.23h6.6l-.51,1a.71.71,0,0,0,0,.72.72.72,0,0,0,.62.35H18.3a1,1,0,0,0,.88-.54L20,21.83h7.09a3.18,3.18,0,0,0,3.18-3.17V14.28a3.18,3.18,0,0,0-3.18-3.17Zm-14.74,1h-.56a.47.47,0,0,0-.46.38,4.63,4.63,0,0,1-.71,1.7.48.48,0,0,0,.06.6l.4.39-.79.79-.39-.4a.48.48,0,0,0-.6-.06,4.56,4.56,0,0,1-1.7.71.47.47,0,0,0-.38.46v.56H6.08v-.56a.47.47,0,0,0-.38-.46A4.63,4.63,0,0,1,4,15.54a.48.48,0,0,0-.6.06L3,16l-.79-.79.4-.39a.48.48,0,0,0,.06-.6A4.56,4.56,0,0,1,2,12.52a.47.47,0,0,0-.46-.38H1V11h.56A.47.47,0,0,0,2,10.65,4.56,4.56,0,0,1,2.68,9a.48.48,0,0,0-.06-.6L2.22,8,3,7.17l.39.4a.48.48,0,0,0,.6.06,4.56,4.56,0,0,1,1.7-.71.47.47,0,0,0,.38-.46V5.9H7.19v.56a.47.47,0,0,0,.38.46,4.56,4.56,0,0,1,1.7.71.48.48,0,0,0,.6-.06l.39-.4.79.79-.4.39a.48.48,0,0,0-.06.6,4.56,4.56,0,0,1,.71,1.7.47.47,0,0,0,.46.38h.56v1.11Zm12.29,1s0,0,0,0h-8L18.16,10s0,0,0,0h8ZM22.73,28a3.14,3.14,0,1,1-3.15,3.14A3.15,3.15,0,0,1,22.73,28ZM5.63,29.57s0,0,0,0h8l-1.63,3.14s0,0,0,0H4Zm12.71-6.65s0,0,0,0h-8l1.62-3.14s0,0,0,0h8Zm2.43,8.47a.47.47,0,0,1,0-.67h0a.47.47,0,0,1,.67,0h0l.83.81L24,29.74a.48.48,0,1,1,.69.67h0L22.6,32.52a.48.48,0,0,1-.34.14.51.51,0,0,1-.33-.13ZM6.63,7.91a3.68,3.68,0,1,0,3.68,3.68A3.68,3.68,0,0,0,6.63,7.91Zm0,6.4a2.73,2.73,0,1,1,2.73-2.72A2.72,2.72,0,0,1,6.63,14.31Zm11.67,7a.47.47,0,0,1-.47.47H15.1a.48.48,0,0,1-.48-.47.49.49,0,0,1,.48-.48h2.73A.48.48,0,0,1,18.3,21.36Zm-4.88,0a.48.48,0,0,1-.48.47h-.53a.47.47,0,0,1-.48-.47.48.48,0,0,1,.48-.48h.53A.49.49,0,0,1,13.42,21.36Zm6.26-9.77a.47.47,0,0,1-.47.47h-.54a.48.48,0,0,1,0-1h.54A.47.47,0,0,1,19.68,11.59Zm4.89,0a.47.47,0,0,1-.47.47H21.37a.48.48,0,1,1,0-1H24.1A.47.47,0,0,1,24.57,11.59ZM5.66,31.13a.48.48,0,0,1,.48-.47h.54a.47.47,0,0,1,.47.47.48.48,0,0,1-.47.48H6.14A.49.49,0,0,1,5.66,31.13Zm2.7,0a.47.47,0,0,1,.47-.47h2.73a.48.48,0,0,1,.48.47.49.49,0,0,1-.48.48H8.83A.48.48,0,0,1,8.36,31.13Z" transform="translate(0 -4.95)"/></svg>