<svg width="20" height="20" viewBox="0 0 20 20" fill="none" xmlns="http://www.w3.org/2000/svg">
<g id="Iconly/Light/Buy">
<g id="Buy">
<path id="Stroke 1" d="M2.29199 2.70825L4.02533 3.00825L4.82783 12.5691C4.89199 13.3499 5.54449 13.9491 6.32783 13.9466H15.4187C16.1662 13.9483 16.8003 13.3983 16.9062 12.6583L17.697 7.19325C17.7853 6.58242 17.3612 6.01575 16.7512 5.92742C16.6978 5.91992 4.30366 5.91575 4.30366 5.91575" stroke="#888AA0" stroke-width="1.5" stroke-linecap="round" stroke-linejoin="round"/>
<path id="Stroke 3" d="M11.771 8.99565H14.0818" stroke="#888AA0" stroke-width="1.5" stroke-linecap="round" stroke-linejoin="round"/>
<path id="Stroke 5" fill-rule="evenodd" clip-rule="evenodd" d="M5.96212 16.8354C6.21296 16.8354 6.41546 17.0387 6.41546 17.2887C6.41546 17.5396 6.21296 17.7429 5.96212 17.7429C5.71129 17.7429 5.50879 17.5396 5.50879 17.2887C5.50879 17.0387 5.71129 16.8354 5.96212 16.8354Z" fill="#888AA0" stroke="#888AA0" stroke-width="1.5" stroke-linecap="round" stroke-linejoin="round"/>
<path id="Stroke 7" fill-rule="evenodd" clip-rule="evenodd" d="M15.3625 16.8354C15.6133 16.8354 15.8167 17.0387 15.8167 17.2887C15.8167 17.5396 15.6133 17.7429 15.3625 17.7429C15.1117 17.7429 14.9092 17.5396 14.9092 17.2887C14.9092 17.0387 15.1117 16.8354 15.3625 16.8354Z" fill="#888AA0" stroke="#888AA0" stroke-width="1.5" stroke-linecap="round" stroke-linejoin="round"/>
</g>
</g>
</svg>
