<svg xmlns="http://www.w3.org/2000/svg" version="1.1" xmlns:xlink="http://www.w3.org/1999/xlink" xmlns:svgjs="http://svgjs.com/svgjs" width="512" height="512" x="0" y="0" viewBox="0 0 486.603 486.603" style="enable-background:new 0 0 512 512" xml:space="preserve" class=""><g><path d="M183.216 176.333c33.6 19.4 88 19.4 121.4 0 33.5-19.4 33.2-50.9-.4-70.3s-88-19.4-121.4 0-33.2 50.8.4 70.3zm15.4-33.6c2.6-.8 5.1-1.7 7.6-2.5 1.9-.6 3-.7 3.8-.3.5.3.8.7 1.2 1.4 1.7 3.2 4.5 6 8 8.6.6.5 1.2.9 1.9 1.3 1.9 1.1 4 1.9 6.6 2.5 6.5 1.4 12.3-1.1 11.6-5.1-.2-1.4-.9-2.6-1.8-3.9-2.2-3.3-5-6.4-6.5-9.8-2.4-5.6-1.3-10.6 6.4-14.6 8.8-4.5 18.5-4.7 28.9-2 4.2 1.2 4.2 1.2 7.5-.7 1.1-.6 2.2-1.3 3.3-1.9 2.5-1.4 3.4-1.4 5.9 0 .8.4 1.5.9 2.3 1.3 5.2 3 5.2 3 .1 6.1-3.7 2.1-3.7 2.1-.6 4.6 2.4 1.9 4.2 3.9 5.7 6.1.8 1.2.3 2.1-1.6 2.7-2.9.9-5.8 1.9-8.7 2.8-1.8.5-2.9.6-3.7.2-.4-.3-.8-.7-1.2-1.3-1.9-3.1-4.8-5.7-8.7-8-.5-.3-1.1-.6-1.7-.9-1.3-.6-2.5-1.2-4.1-1.6-5.6-1.3-10.5.8-9.8 4.3.3 1.8 1.3 3.4 2.5 5 2 2.8 4.1 5.6 5.6 8.5 4.7 9.4-5.5 18.6-21.8 19.5-5.9.3-11.5-.4-16.6-2.1-2.2-.7-3.9-.6-5.7.5-1.7 1.1-3.6 2.1-5.3 3.1-1.6.9-3.3 1-4.9.1-1.2-.6-2.3-1.3-3.5-1.9-.8-.5-1.6-.9-2.4-1.4-1.7-1-1.5-2 .1-3 1.3-.8 2.6-1.5 3.8-2.3 2.9-1.7 2.9-1.8.5-3.7-3-2.4-5.7-4.9-7.4-7.7-1.1-2.2-.8-2.7 2.7-3.9zm116.9 39.8c9.3-5.4 24.3-5.4 33.6 0s9.4 14.1.1 19.5c-9.2 5.4-24.3 5.4-33.6 0s-9.4-14.1-.1-19.5zm-177.2-102.3c9.3-5.4 24.3-5.4 33.7 0 9.3 5.4 9.4 14.1.1 19.5-9.2 5.4-24.3 5.4-33.6 0-9.4-5.4-9.5-14.1-.2-19.5zm-125.9 41.7 265.3 153.1c15.3 8.9 40.2 8.9 55.4 0l142.1-82.6c15.2-8.9 15.2-23.3-.1-32.1l-265.3-153.2c-15.3-8.9-40.2-8.8-55.5 0l-142.1 82.7c-15.2 8.8-15.1 23.2.2 32.1zm57.6-32.5c-1.7-1-3.5-1.8-5.4-2.6l84.9-49.3c1.3 1.1 2.8 2.1 4.5 3.1 15.5 9 40.7 8.9 56.1 0 1.8-1 3.3-2.1 4.6-3.3l206.6 119.3c-2.8 1-5.3 2.1-7.7 3.5-15.5 9-15.4 23.5.2 32.5 2.4 1.4 5 2.5 7.8 3.5l-85.7 49.8c-1.7-1.6-3.7-3.1-6.1-4.5-15.6-9-40.7-9-56.1 0-1.2.7-2.2 1.4-3.2 2.2l-206-119c2-.8 3.9-1.7 5.6-2.7 15.5-8.9 15.4-23.5-.1-32.5zm-64.5 63.1c6.7-3.5 17.2-3 23.7.8l277.2 160 149.9-87.1c6.5-3.8 17.1-3.8 23.6 0 6.6 3.8 6.6 9.9.1 13.7l-159.3 92.6c-7.8 4.5-20.5 4.5-28.3 0l-5.6-3.2-3.9-2.3-278-160.4c-6.7-4-6.6-10.4.6-14.1zm474.8 137.5-159.3 92.6c-7.8 4.5-20.5 4.5-28.3 0l-5.6-3.2-4-2.3-277.9-160.5c-6.8-3.9-6.6-10.3.6-14.1 6.7-3.5 17.2-3 23.7.8l277.2 160 149.8-87c6.5-3.8 17.1-3.8 23.7 0 6.5 3.8 6.6 9.9.1 13.7zm-474.8-37.4c6.7-3.5 17.2-3 23.7.8l277.2 160.1 149.9-87.2c6.5-3.8 17.1-3.8 23.6 0 6.6 3.8 6.6 9.9.1 13.7l-159.3 92.6c-7.8 4.5-20.5 4.5-28.3 0l-5.6-3.2-3.9-2.3-278-160.4c-6.7-3.9-6.6-10.3.6-14.1zm474.8 137.5-159.3 92.6c-7.8 4.5-20.5 4.5-28.3 0l-5.6-3.2-4-2.3-277.9-160.5c-6.8-3.9-6.6-10.3.6-14.1 6.7-3.5 17.2-3 23.7.8l277.2 160 149.9-87.1c6.5-3.8 17.1-3.8 23.7 0 6.4 3.9 6.5 10 0 13.8z" fill="#000000" data-original="#000000" class=""></path></g></svg>