<svg id="Layer_1" data-name="Layer 1" xmlns="http://www.w3.org/2000/svg" viewBox="0 0 88.02 100"><title>contact</title><path d="M82.13,0H25.87A11.92,11.92,0,0,0,14,11.9v5.15H8.37a2.38,2.38,0,1,0,0,4.76h5.57V37.43H8.37a2.38,2.38,0,0,0,0,4.76h5.57V57.81H8.37a2.38,2.38,0,0,0,0,4.76h5.57V78.19H8.37a2.38,2.38,0,1,0,0,4.76h5.57V88.1A11.9,11.9,0,0,0,25.84,100H82.11A11.9,11.9,0,0,0,94,88.1V11.9A11.89,11.89,0,0,0,82.13,0Zm7.14,88.1a7.16,7.16,0,0,1-7.14,7.14H25.87a7.16,7.16,0,0,1-7.14-7.14V83H24.3a2.38,2.38,0,1,0,0-4.76H18.73V62.57H24.3a2.38,2.38,0,1,0,0-4.76H18.73V42.19H24.3a2.38,2.38,0,1,0,0-4.76H18.73V21.81H24.3a2.38,2.38,0,1,0,0-4.76H18.73V11.9a7.16,7.16,0,0,1,7.14-7.14H82.13a7.16,7.16,0,0,1,7.14,7.14Z" transform="translate(-5.99 0)"/><path d="M54,49.31A11.55,11.55,0,1,0,42.44,37.76,11.55,11.55,0,0,0,54,49.31ZM54,31a6.79,6.79,0,1,1-6.79,6.79A6.78,6.78,0,0,1,54,31Zm0,22.19c-9.91,0-17.67,8-17.67,18.29a2.39,2.39,0,0,0,2.38,2.38H69.27a2.39,2.39,0,0,0,2.39-2.38C71.66,61.17,63.89,53.14,54,53.14ZM41.27,69.05a12.82,12.82,0,0,1,25.43,0Z" transform="translate(-5.99 0)"/></svg>