<svg id="Layer_1" data-name="Layer 1" xmlns="http://www.w3.org/2000/svg" viewBox="0 0 512.01 512"><title>count</title><path d="M151.31,144v67.44a16,16,0,0,1-32,0V159.63l-48.46,23.6v28.25a16,16,0,1,1-32,0V198.82L23,206.54A16,16,0,1,1,9,177.78l29.86-14.55V17.39a16,16,0,1,1,32,0V147.64L119.31,124V17.39a16,16,0,1,1,32,0v91.05l48.46-23.61V17.39a16,16,0,0,1,32,0V69.24l48.46-23.61V17.39a16,16,0,1,1,32,0V30l15.84-7.72a16,16,0,1,1,14,28.77L312.23,65.64V211.48a16,16,0,1,1-32,0V81.23l-48.46,23.61V211.48a16,16,0,0,1-32,0v-91ZM510.38,315.61A16,16,0,0,0,489,308.23L473.15,316V303.29a16,16,0,0,0-32,0v28.25l-48.46,23.61V303.29a16,16,0,0,0-32,0v67.45l-48.46,23.61V303.29a16,16,0,1,0-32,0V409.94l-48.46,23.61V303.29a16,16,0,0,0-32,0V449.14l-29.86,14.54a16,16,0,1,0,14,28.77l15.84-7.72v12.66a16,16,0,0,0,32,0V469.14l48.46-23.61v51.86a16,16,0,0,0,32,0V429.94l48.46-23.61v91.06a16,16,0,0,0,32,0V390.74l48.46-23.6V497.39a16,16,0,0,0,32,0V351.55L503,337a16,16,0,0,0,7.37-21.39Z" transform="translate(0 -1.39)"/></svg>