<svg xmlns="http://www.w3.org/2000/svg" version="1.1" xmlns:xlink="http://www.w3.org/1999/xlink" xmlns:svgjs="http://svgjs.com/svgjs" width="512" height="512" x="0" y="0" viewBox="0 0 430.08 430" style="enable-background:new 0 0 512 512" xml:space="preserve" class=""><g><path d="m428.969 179.441-21.77-33.308c-9.613-14.719-25.945-23.508-43.699-23.508h-56.3V90.227c0-19.782-16.087-35.868-35.868-35.868H165.937C160.023 23.473 132.836.04 100.25.04c-36.898 0-66.914 30.02-66.914 66.914 0 23.2 11.879 43.664 29.863 55.672H6.83c-3.774 0-6.829 3.055-6.829 6.828s3.055 6.828 6.828 6.828h68.266v13.653H47.785a6.824 6.824 0 0 0-6.824 6.828 6.82 6.82 0 0 0 6.824 6.824h27.309v13.652H6.828A6.825 6.825 0 0 0 0 184.066a6.825 6.825 0 0 0 6.828 6.829h68.266v30.234c-12.035 5.309-20.48 17.316-20.48 31.293v6.738a6.828 6.828 0 0 0 6.827 6.828h60.547c3.883 16.703 18.86 29.203 36.73 29.203 17.876 0 32.848-12.5 36.731-29.203h131.34c3.887 16.703 18.863 29.203 36.73 29.203 17.868 0 32.848-12.5 36.731-29.203h23.004a6.822 6.822 0 0 0 6.824-6.828v-75.984a6.832 6.832 0 0 0-1.11-3.735zM46.989 66.953c0-29.367 23.894-53.262 53.261-53.262 29.371 0 53.262 23.895 53.262 53.262s-23.89 53.262-53.262 53.262c-29.367 0-53.262-23.895-53.262-53.262zm41.757 123.942h13.652a6.825 6.825 0 0 0 6.829-6.829 6.825 6.825 0 0 0-6.829-6.828H88.746v-13.652h47.79a6.82 6.82 0 0 0 6.823-6.824 6.824 6.824 0 0 0-6.824-6.828H88.746V136.28h88.746c3.77 0 6.828-3.054 6.828-6.828s-3.058-6.828-6.828-6.828h-40.191c17.707-11.824 29.453-31.855 29.812-54.613h104.223c12.246 0 22.21 9.968 22.21 22.215v127.972H88.833c-.027 0-.055.008-.086.008zm204.8 61.437H196.07c-1.074-7.852-4.558-14.93-9.703-20.48h107.18zm-204.714-20.48h42.238c-5.14 5.55-8.629 12.628-9.699 20.48H68.266c.046-11.297 9.257-20.48 20.566-20.48zm69.887 49.687c-13.278 0-24.086-10.805-24.086-24.086 0-13.277 10.808-24.086 24.086-24.086 13.281 0 24.086 10.809 24.086 24.086 0 13.281-10.805 24.086-24.086 24.086zm204.8 0c-13.277 0-24.085-10.805-24.085-24.086 0-13.277 10.808-24.086 24.086-24.086 13.28 0 24.085 10.809 24.085 24.086 0 13.281-10.804 24.086-24.085 24.086zm52.907-29.207H400.87c-2.512-18.387-18.285-32.617-37.351-32.617-19.067 0-34.836 14.23-37.352 32.617h-18.969v-116.05H363.5c13.121 0 25.188 6.472 32.273 17.316l20.653 31.609zm0 0" fill="#000000" data-original="#000000"></path><path d="M374.688 257.453c0 6.168-5 11.168-11.168 11.168s-11.168-5-11.168-11.168 5-11.168 11.168-11.168 11.168 5 11.168 11.168zM169.887 257.453c0 6.168-5 11.168-11.168 11.168-6.164 0-11.164-5-11.164-11.168s5-11.168 11.164-11.168c6.168 0 11.168 5 11.168 11.168zM109.227 66.953V37.086a6.822 6.822 0 0 0-6.829-6.824 6.82 6.82 0 0 0-6.824 6.824v27.64L81.641 83.84a6.816 6.816 0 0 0 1.492 9.531 6.784 6.784 0 0 0 4.02 1.317 6.81 6.81 0 0 0 5.519-2.81l15.246-20.905a6.828 6.828 0 0 0 1.309-4.02zM361.219 143.105H348.16a6.825 6.825 0 0 0-6.828 6.829v47.785a6.825 6.825 0 0 0 6.828 6.828h45.945c4.282 0 8.114-2.215 10.262-5.914 2.149-3.7 2.153-8.13.035-11.82l-15.941-27.903c-5.566-9.742-16.008-15.805-27.242-15.805zm-6.23 47.79v-34.133h6.23a17.749 17.749 0 0 1 15.386 8.925l14.403 25.208zm0 0" fill="#000000" data-original="#000000"></path></g></svg>