<svg id="Layer_1" data-name="Layer 1" xmlns="http://www.w3.org/2000/svg" viewBox="0 0 100 100"><title>edit</title><path d="M79.17,50A4.16,4.16,0,0,0,75,54.16V87.5a4.17,4.17,0,0,1-4.17,4.16H12.5A4.17,4.17,0,0,1,8.33,87.5V29.16A4.17,4.17,0,0,1,12.5,25H45.83a4.17,4.17,0,1,0,0-8.34H12.5A12.52,12.52,0,0,0,0,29.16V87.5A12.52,12.52,0,0,0,12.5,100H70.83a12.51,12.51,0,0,0,12.5-12.5V54.16A4.16,4.16,0,0,0,79.17,50Z"/><path d="M39.07,46.2a2.08,2.08,0,0,0-.57,1.06L35.55,62a2.08,2.08,0,0,0,2.05,2.49,1.81,1.81,0,0,0,.4,0l14.73-3a2.07,2.07,0,0,0,1.07-.57l33-33L72,13.23ZM97,3.05a10.41,10.41,0,0,0-14.73,0L76.45,8.81,91.18,23.54,97,17.78A10.42,10.42,0,0,0,97,3.05Z"/></svg>