<svg id="Layer_1" data-name="Layer 1" xmlns="http://www.w3.org/2000/svg" viewBox="0 0 250 208.62"><title>empty</title><path d="M139.94,36.11H32.3A13.83,13.83,0,0,0,18.47,49.94h212V30.45a10.09,10.09,0,0,0-10.07-10.08H156.72a13.44,13.44,0,0,0-11.66,6.77Z" transform="translate(-0.48 -20.37)" fill="#2d74ff"/><path d="M234.91,178.16l13.34-96.08a20.75,20.75,0,0,0-17.72-23.4,20.34,20.34,0,0,0-2.82-.19H21.21A20.79,20.79,0,0,0,.67,82.08l7,50.14a2.31,2.31,0,1,0,4.57-.63l-7-50.14a16.14,16.14,0,0,1,16-18.35h206.5a16.15,16.15,0,0,1,16,18.35l-13.35,96.08a2.31,2.31,0,0,0,4.55.77A.68.68,0,0,1,234.91,178.16ZM9.72,147.23l8.87,63.88A20.74,20.74,0,0,0,39.13,229H209.79a20.73,20.73,0,0,0,18.42-11.21,2.3,2.3,0,0,0-4.09-2.12,16.13,16.13,0,0,1-14.33,8.72H39.13a16.13,16.13,0,0,1-16-13.9L14.28,146.6a2.3,2.3,0,1,0-4.56.63Z" transform="translate(-0.48 -20.37)" fill="#738bab"/><path d="M46.13,189.94a11.52,11.52,0,0,0,11.52,11.52H94.51A11.52,11.52,0,0,0,106,189.94v-9.21A11.53,11.53,0,0,0,94.51,169.2H57.65a11.54,11.54,0,0,0-10.15,6.06,2.31,2.31,0,1,0,4.06,2.19,6.91,6.91,0,0,1,6.09-3.64H94.51a6.91,6.91,0,0,1,6.91,6.92v9.21a6.91,6.91,0,0,1-6.91,6.91H57.65a6.91,6.91,0,0,1-6.92-6.91,2.3,2.3,0,0,0-4.6,0Z" transform="translate(-0.48 -20.37)" fill="#738bab"/><path d="M172.85,96.46a46.08,46.08,0,1,0,46.08,46.08,46.1,46.1,0,0,0-46.08-46.08Zm0,9.22A36.87,36.87,0,1,1,136,142.54a36.88,36.88,0,0,1,36.87-36.86Z" transform="translate(-0.48 -20.37)" fill="#2d74ff"/><path d="M199.68,174.33l43,43a4.6,4.6,0,0,0,6.51-6.51l-43-43a4.61,4.61,0,1,0-6.52,6.52Z" transform="translate(-0.48 -20.37)" fill="#2d74ff"/></svg>