<svg id="Layer_1" data-name="Layer 1" xmlns="http://www.w3.org/2000/svg" viewBox="0 0 125 113.35"><title>error</title><path d="M122.5,85.25,78.71,9.4a18.64,18.64,0,0,0-32.37,0L2.52,85.25a18.72,18.72,0,0,0,16.19,28.1h87.45c14.44,0,23.49-15.72,16.34-28.1Zm-60,11.27a7,7,0,0,1,0-14,6.85,6.85,0,0,1,6.82,7.16c.18,3.63-3.17,6.79-6.82,6.79Zm6.35-45.08c-.3,5.4-.64,10.78-.95,16.19-.15,1.74-.15,3.34-.15,5.06a5.26,5.26,0,0,1-5.25,5.07,5.14,5.14,0,0,1-5.25-4.91c-.46-8.42-1-16.67-1.42-25.09-.15-2.21-.3-4.45-.48-6.66a7.57,7.57,0,0,1,5.4-7.62,7,7,0,0,1,8.1,4,8.33,8.33,0,0,1,.65,3.5c-.16,3.53-.49,7-.65,10.5Z"/></svg>