<svg id="Layer_1" data-name="Layer 1" xmlns="http://www.w3.org/2000/svg" viewBox="0 0 274.99 250"><title>filter</title><path d="M200,37.5A37.5,37.5,0,1,1,237.49,75,37.5,37.5,0,0,1,200,37.5ZM12.5,50h150a12.5,12.5,0,0,0,0-25H12.5a12.5,12.5,0,0,0,0,25Zm75,37.5a37.48,37.48,0,0,0-35.25,25H12.5a12.5,12.5,0,1,0,0,25H52.25a37.5,37.5,0,1,0,35.25-50Zm175,25h-100a12.5,12.5,0,1,0,0,25h100a12.5,12.5,0,1,0,0-25ZM112.5,200H12.5a12.5,12.5,0,0,0,0,25h100a12.5,12.5,0,0,0,0-25Zm150,0H222.74a37.51,37.51,0,1,0,0,25h39.75a12.5,12.5,0,0,0,0-25Z"/></svg>