<svg id="Layer_1" data-name="Layer 1" xmlns="http://www.w3.org/2000/svg" viewBox="0 0 215 215"><title>info</title><path d="M109.74,17.92H99.89a24.69,24.69,0,0,0-47.48,0H42.55a6.77,6.77,0,0,0-6.72,6.72V38.07A15.76,15.76,0,0,0,51.51,53.75h49.27a15.76,15.76,0,0,0,15.68-15.68V24.64A6.77,6.77,0,0,0,109.74,17.92Z"/><path d="M127.66,26.88h-2.24V38.07a24.63,24.63,0,0,1-24.64,24.64H51.51A24.62,24.62,0,0,1,26.88,38.07V26.88H24.64A24.62,24.62,0,0,0,0,51.51v112a24.63,24.63,0,0,0,24.64,24.64h59a78.15,78.15,0,0,1-7.43-31.36H33.59a6.72,6.72,0,0,1,0-13.44H77a82.28,82.28,0,0,1,3.94-15.67H33.59a6.72,6.72,0,0,1,0-13.44H87.34A78.29,78.29,0,0,1,99.8,98.54H33.59a6.72,6.72,0,0,1,0-13.44h84.57a77.18,77.18,0,0,1,34.13-8.86V51.51A24.61,24.61,0,0,0,127.66,26.88Z"/><path d="M154.53,94.06A60.47,60.47,0,1,0,215,154.53,60.54,60.54,0,0,0,154.53,94.06Zm9,85.11a9,9,0,0,1-17.92,0V147.81a9,9,0,1,1,17.92,0Zm-9-44.79a9,9,0,1,1,9-9A9,9,0,0,1,154.53,134.38Z"/></svg>