<svg id="Layer_1" data-name="Layer 1" xmlns="http://www.w3.org/2000/svg" viewBox="0 0 30.41 40"><title>invest</title><path d="M20.32,20.66a11,11,0,0,1-7.6-3A10,10,0,0,1,12.72,3,10.86,10.86,0,0,1,18.4.17a11.16,11.16,0,0,1,6.21.68,1,1,0,0,1-.79,1.89,9,9,0,0,0-9.68,1.75,8,8,0,0,0,0,11.69,9.06,9.06,0,0,0,12.37,0A8,8,0,0,0,28.33,7,1,1,0,0,1,30.2,6.2a9.87,9.87,0,0,1,.72,6,10.12,10.12,0,0,1-3,5.47A11,11,0,0,1,20.32,20.66Z" transform="translate(-5.12 0)"/><path d="M27.22,4.78l-.2,0-.19-.06a.77.77,0,0,1-.18-.1,1,1,0,0,1-.16-.12,1,1,0,0,1-.12-.16,1,1,0,0,1-.1-.18L26.21,4a1.23,1.23,0,0,1,0-.2,1.5,1.5,0,0,1,0-.2l.06-.19a1.62,1.62,0,0,1,.1-.18A.88.88,0,0,1,26.49,3l.16-.13a.51.51,0,0,1,.18-.09A.6.6,0,0,1,27,2.75a.9.9,0,0,1,.4,0,.7.7,0,0,1,.19.06.56.56,0,0,1,.17.09l.16.13a.93.93,0,0,1,.13.15.76.76,0,0,1,.09.18.7.7,0,0,1,.06.19,1.5,1.5,0,0,1,0,.2,1.23,1.23,0,0,1,0,.2.6.6,0,0,1-.06.19.61.61,0,0,1-.09.18,1,1,0,0,1-.13.16,1,1,0,0,1-.16.12,1,1,0,0,1-.17.1l-.19.06Z" transform="translate(-5.12 0)"/><path d="M20.14,16.13a4.94,4.94,0,0,1-3.08-.84,1,1,0,0,1-.33-1.41,1,1,0,0,1,1.42-.33,3,3,0,0,0,2.1.53A1.72,1.72,0,0,0,22,12.67a1.22,1.22,0,0,0-1-1.42A11.28,11.28,0,0,1,17.9,9.81a2.72,2.72,0,0,1-1-2.72,3.14,3.14,0,0,1,2.22-2.47,4.65,4.65,0,0,1,3.77.65,1,1,0,0,1-1.19,1.66,2.65,2.65,0,0,0-2-.34,1.09,1.09,0,0,0-.77.87.74.74,0,0,0,.19.71,10.21,10.21,0,0,0,2.56,1.14A3.28,3.28,0,0,1,24,13a3.77,3.77,0,0,1-3.75,3.13Z" transform="translate(-5.12 0)"/><path d="M20.32,17.53a1,1,0,0,1-1-1V4.16a1,1,0,0,1,2.05,0V16.51A1,1,0,0,1,20.32,17.53Z" transform="translate(-5.12 0)"/><path d="M20.32,33.62a1,1,0,0,1-1-1v-13a1,1,0,0,1,2.05,0v13A1,1,0,0,1,20.32,33.62Z" transform="translate(-5.12 0)"/><path d="M22.82,33.89a10.21,10.21,0,0,1-2.45-.3,1,1,0,0,1-.74-.72A9,9,0,0,1,22.13,24a9.9,9.9,0,0,1,9.23-2.37,1,1,0,0,1,.73.71,9,9,0,0,1-2.49,8.92A9.85,9.85,0,0,1,22.82,33.89Zm-1.35-2.16a7.81,7.81,0,0,0,6.71-2,7,7,0,0,0,2.08-6.29,7.81,7.81,0,0,0-6.72,2A7,7,0,0,0,21.47,31.73Z" transform="translate(-5.12 0)"/><path d="M20.62,33.62a1,1,0,0,1-.71-1.77l4.6-4.38a1,1,0,0,1,1.44,0,1,1,0,0,1,0,1.45l-4.59,4.39A1,1,0,0,1,20.62,33.62Z" transform="translate(-5.12 0)"/><path d="M17.83,33.89a9.83,9.83,0,0,1-6.78-2.67,9,9,0,0,1-2.5-8.92,1,1,0,0,1,.74-.71A9.9,9.9,0,0,1,18.52,24,9,9,0,0,1,21,32.87a1,1,0,0,1-.73.72A10.21,10.21,0,0,1,17.83,33.89ZM10.39,23.45a7,7,0,0,0,2.07,6.29,7.84,7.84,0,0,0,6.72,2,7,7,0,0,0-2.08-6.29A7.78,7.78,0,0,0,10.39,23.45Z" transform="translate(-5.12 0)"/><path d="M20,33.62a1,1,0,0,1-.71-.28L14.73,29a1,1,0,1,1,1.41-1.48l4.6,4.38a1,1,0,0,1,0,1.45A1,1,0,0,1,20,33.62Z" transform="translate(-5.12 0)"/><path d="M34.51,40H6.14a1,1,0,0,1-1-1A4.78,4.78,0,0,1,10,34.29h0a4.9,4.9,0,0,1,2,.44,12.86,12.86,0,0,1,16.58,0,5,5,0,0,1,2.05-.44h0A4.78,4.78,0,0,1,35.53,39,1,1,0,0,1,34.51,40ZM7.39,38H33.26a2.82,2.82,0,0,0-2.59-1.61h0a2.91,2.91,0,0,0-1.62.49,1,1,0,0,1-1.29-.12,10.81,10.81,0,0,0-14.86,0,1,1,0,0,1-1.28.12A2.92,2.92,0,0,0,10,36.34h0A2.8,2.8,0,0,0,7.39,38Z" transform="translate(-5.12 0)"/></svg>