<svg id="Layer_1" data-name="Layer 1" xmlns="http://www.w3.org/2000/svg" viewBox="0 0 35.67 40"><title>investor</title><path d="M23.1,31a.79.79,0,0,1-.79-.8.76.76,0,0,1,.1-.39l2.5-4.42a.8.8,0,1,1,1.39.79h0l-2.5,4.41a.79.79,0,0,1-.7.41ZM16,31a.79.79,0,0,1-.7-.41l-2.43-4.3a.8.8,0,0,1,.33-1.08.81.81,0,0,1,1.06.3l2.43,4.3a.8.8,0,0,1-.3,1.09A.78.78,0,0,1,16,31ZM20,8.18a.8.8,0,0,1-.34-1.52,22.13,22.13,0,0,0,3.39-2,.79.79,0,0,1,1.11.18A.8.8,0,0,1,23.94,6,23.3,23.3,0,0,1,20.3,8.11a.8.8,0,0,1-.34.07Z" transform="translate(-1.71)"/><path d="M26.72,9.48a9.19,9.19,0,0,1-5.94-2.17.79.79,0,0,1-.1-1.12h0a.82.82,0,0,1,1.13-.1h0a7.63,7.63,0,0,0,5.42,1.77.8.8,0,1,1,.1,1.6l-.61,0Z" transform="translate(-1.71)"/><path d="M11.82,10.22a.8.8,0,0,1-.05-1.6l1.14-.08a21.26,21.26,0,0,0,6.71-1.88A.79.79,0,0,1,20.68,7a.8.8,0,0,1-.38,1.07h0a22.93,22.93,0,0,1-7.25,2l-1.17.08Zm15.46-.76a.8.8,0,0,1-.8-.8V7.56a.8.8,0,1,1,1.6,0v1.1A.8.8,0,0,1,27.28,9.46Z" transform="translate(-1.71)"/><path d="M11.8,9.46a.8.8,0,0,1-.8-.8V7.56a.8.8,0,1,1,1.6,0v1.1A.8.8,0,0,1,11.8,9.46Z" transform="translate(-1.71)"/><path d="M19.62,20.56a7.43,7.43,0,0,1-5.68-2.88,14.43,14.43,0,0,1-2.94-9,.82.82,0,0,1,.79-.82h0a.79.79,0,0,1,.81.77v0a13,13,0,0,0,2.56,8c1.47,1.76,4.17,3.24,6.91,1.61,4-2.36,4.38-8,4.41-9.63a.79.79,0,0,1,.81-.78h0a.8.8,0,0,1,.79.81h0c-.08,5-2,9.1-5.19,11a6.3,6.3,0,0,1-3.27.91Z" transform="translate(-1.71)"/><path d="M27.28,8.36h0a.79.79,0,0,1-.79-.81h0a5.86,5.86,0,0,0-5-5.82A.81.81,0,0,1,20.81.8a.81.81,0,0,1,.88-.66,7.47,7.47,0,0,1,6.39,7.43A.79.79,0,0,1,27.28,8.36Z" transform="translate(-1.71)"/><path d="M21.58,1.74h-.11a14.67,14.67,0,0,0-3.86,0A.8.8,0,0,1,17.4.14a16.14,16.14,0,0,1,4.28,0,.8.8,0,0,1-.1,1.6Z" transform="translate(-1.71)"/><path d="M11.8,8.36a.8.8,0,0,1-.8-.79A7.48,7.48,0,0,1,17.39.14a.81.81,0,0,1,.89.71.81.81,0,0,1-.66.88,5.86,5.86,0,0,0-5,5.82.79.79,0,0,1-.79.81h0ZM2.51,34.51h0a.8.8,0,0,1-.75-.84h0c.1-1.59.23-3.2.41-4.79a.8.8,0,1,1,1.59.18c-.17,1.56-.31,3.13-.4,4.7a.81.81,0,0,1-.8.76Zm34.06,0a.82.82,0,0,1-.8-.76c-.09-1.56-.23-3.14-.4-4.7A.8.8,0,0,1,37,28.87c.18,1.59.31,3.2.41,4.79a.81.81,0,0,1-.75.85ZM16,31a.8.8,0,0,1-.8-.8.82.82,0,0,1,.25-.59L19,26.28a.79.79,0,0,1,1.13,0,.8.8,0,0,1,0,1.13h0l-3.56,3.3A.78.78,0,0,1,16,31Zm-4.19-7.4a.8.8,0,0,1-.66-1.25l1.23-1.8a.79.79,0,0,1,1.12-.16.8.8,0,0,1,.2,1.06l-1.23,1.8A.8.8,0,0,1,11.79,23.56Zm15.5,0a.8.8,0,0,1-.66-.35l-1.23-1.8a.8.8,0,0,1,.21-1.11.79.79,0,0,1,1.11.21L28,22.31a.8.8,0,0,1-.67,1.25Z" transform="translate(-1.71)"/><path d="M23.11,31a.79.79,0,0,1-.55-.21L19,27.45a.79.79,0,0,1-.06-1.13.8.8,0,0,1,1.13-.06v0l3.57,3.29a.82.82,0,0,1,0,1.14.79.79,0,0,1-.58.25Z" transform="translate(-1.71)"/><path d="M19.54,27.67a.8.8,0,0,1-.8-.8.79.79,0,0,1,.26-.6l6.53-5.9a.79.79,0,0,1,1.13,0,.82.82,0,0,1,0,1.14l0,0-6.52,5.91a.83.83,0,0,1-.54.21Z" transform="translate(-1.71)"/><path d="M19.54,27.67a.83.83,0,0,1-.54-.21l-6.52-5.91a.79.79,0,0,1-.08-1.12.78.78,0,0,1,1.12-.09l0,0,6.52,5.9a.8.8,0,0,1-.54,1.4ZM31,24.24l-.15,0-3.65-.68A.8.8,0,1,1,27.44,22l3.65.68a.8.8,0,0,1,.64.93.81.81,0,0,1-.78.66Zm-22.82,0a.8.8,0,0,1-.8-.8A.79.79,0,0,1,8,22.66c1.23-.28,2.47-.51,3.71-.69a.79.79,0,0,1,.91.67h0a.8.8,0,0,1-.68.91h0c-1.2.18-2.4.4-3.59.67Z" transform="translate(-1.71)"/><path d="M2.92,29.76a.81.81,0,0,1-.81-.8s0-.07,0-.11A7.34,7.34,0,0,1,8,22.65a.8.8,0,1,1,.31,1.57h0a5.73,5.73,0,0,0-4.58,4.85A.8.8,0,0,1,2.92,29.76Zm33.25,0a.81.81,0,0,1-.8-.69,5.73,5.73,0,0,0-4.58-4.85.8.8,0,0,1,.31-1.57A7.33,7.33,0,0,1,37,28.85a.8.8,0,0,1-.68.9ZM22.11,39.93a.79.79,0,0,1-.79-.73l-1-10.77a.8.8,0,1,1,1.6-.14l.95,10.77a.8.8,0,0,1-.72.87h-.08Zm-5.14,0H16.9a.81.81,0,0,1-.73-.87h0l1-10.77a.8.8,0,0,1,.86-.73.81.81,0,0,1,.73.87h0l-1,10.77a.79.79,0,0,1-.79.73ZM4,36.86a.85.85,0,0,1-.31-.06,3.21,3.21,0,0,1-1.95-3.14.8.8,0,0,1,.85-.75.79.79,0,0,1,.75.84h0a1.6,1.6,0,0,0,1,1.57.8.8,0,0,1,.42,1,.78.78,0,0,1-.73.49Z" transform="translate(-1.71)"/><path d="M19.54,40A41.06,41.06,0,0,1,3.66,36.8a.8.8,0,0,1,.62-1.48,39.31,39.31,0,0,0,30.52,0,.8.8,0,0,1,.62,1.48h0A41,41,0,0,1,19.54,40Z" transform="translate(-1.71)"/><path d="M35.11,36.86a.8.8,0,0,1-.31-1.54,1.6,1.6,0,0,0,1-1.57.81.81,0,0,1,.79-.81.82.82,0,0,1,.81.72,3.19,3.19,0,0,1-1.95,3.13.67.67,0,0,1-.31.07Z" transform="translate(-1.71)"/></svg>