<svg id="Layer_1" data-name="Layer 1" xmlns="http://www.w3.org/2000/svg" viewBox="0 0 100.12 100.08"><title>logout</title><path d="M60,67.59a4.69,4.69,0,0,0-4.7,4.7V83.72a6.63,6.63,0,0,1-6.63,6.63H15.9a6.64,6.64,0,0,1-6.63-6.63v-68A6.64,6.64,0,0,1,15.9,9.05H48.71a6.63,6.63,0,0,1,6.63,6.63v9.88a4.7,4.7,0,1,0,9.39,0V15.68a16,16,0,0,0-16-16H15.9a16,16,0,0,0-16,16v68a16,16,0,0,0,16,16H48.71a16,16,0,0,0,16-16V72.29A4.69,4.69,0,0,0,60,67.59Z" transform="translate(0.12 0.34)"/><path d="M98.58,46.28,81.88,29.59a4.68,4.68,0,0,0-6.57-.06,4.76,4.76,0,0,0,0,6.77L84,45H43.33a4.7,4.7,0,1,0,0,9.39H84l-8.78,8.78a4.7,4.7,0,0,0,6.64,6.64h0L98.58,53.11a4.82,4.82,0,0,0,0-6.82Z" transform="translate(0.12 0.34)"/></svg>