<svg id="Layer_1" data-name="Layer 1" xmlns="http://www.w3.org/2000/svg" viewBox="0 0 36.27 38.05"><title>medical</title><path d="M24.12,21.54h-2l-1-3.16a.56.56,0,0,0-.7-.36.57.57,0,0,0-.37.4l-1,4.06-.21-.57a.56.56,0,0,0-.52-.37H16.33a.56.56,0,0,0-.53.37l-1,2.86-1.92-7.34a.57.57,0,0,0-.53-.42h0a.56.56,0,0,0-.53.4l-1.26,4.14H8.25a.56.56,0,0,0,0,1.12h2.67a.55.55,0,0,0,.53-.4l.81-2.65,1.87,7.15a.55.55,0,0,0,.68.4.58.58,0,0,0,.38-.35l1.53-4.16h1.09l.69,1.88a.57.57,0,0,0,.72.33.59.59,0,0,0,.35-.39l1-3.94.57,1.73a.55.55,0,0,0,.53.39h2.44a.56.56,0,0,0,0-1.12Z" transform="translate(-2.07 -0.98)"/><path d="M37.89,11.62a.56.56,0,0,0-.65.44c-.77,3.85-5.14,6.18-6.12,6.66a.06.06,0,0,1-.06,0c-2.89-1.4-5.9-4-6.23-7.24a2.88,2.88,0,0,1,5.32-2,.86.86,0,0,0,.07.1,1.09,1.09,0,0,0,1.71,0l.08-.1a2.85,2.85,0,0,1,5.13.32.56.56,0,0,0,.73.3.55.55,0,0,0,.3-.72,4,4,0,0,0-7.09-.52,4.16,4.16,0,0,0-.78-.94V7.7a2.59,2.59,0,0,0-2.58-2.58H23V4.79a1.45,1.45,0,0,0-1.45-1.45h-3V2.43A1.46,1.46,0,0,0,17.06,1H15.31a1.45,1.45,0,0,0-1.46,1.45v.91h-3A1.45,1.45,0,0,0,9.37,4.79v.33H4.65A2.59,2.59,0,0,0,2.07,7.7V36.45A2.58,2.58,0,0,0,4.65,39H14.88a.56.56,0,1,0,0-1.11H4.65a1.47,1.47,0,0,1-1.47-1.46V7.7A1.46,1.46,0,0,1,4.65,6.24H9.37v.31A1.45,1.45,0,0,0,10.82,8H11V9H5.32a1,1,0,0,0-1,1V35.8a1,1,0,0,0,1,1H21a.55.55,0,0,0,.39-.16l6.51-6.51a.56.56,0,0,0,.17-.4V18.2c.36.27.74.52,1.12.76V36.45a1.46,1.46,0,0,1-1.46,1.46H17.48a.56.56,0,0,0-.55.56h0a.55.55,0,0,0,.55.55H27.72a2.58,2.58,0,0,0,2.58-2.57V19.59l.32.16h0a1.27,1.27,0,0,0,.92,0A16,16,0,0,0,35,17.49a9.33,9.33,0,0,0,3.33-5.21.56.56,0,0,0-.44-.66ZM23,6.55V6.24h4.72a1.46,1.46,0,0,1,1.36.92,4,4,0,0,0-4.23.9,4,4,0,0,0-.7.94H21.34V8h.21A1.45,1.45,0,0,0,23,6.55ZM15,2.43a.34.34,0,0,1,.34-.34h1.75a.34.34,0,0,1,.34.34v.91H15V2.43ZM10.82,6.89a.35.35,0,0,1-.34-.34V4.79a.34.34,0,0,1,.34-.34H21.55a.35.35,0,0,1,.34.34V6.55a.35.35,0,0,1-.34.34ZM12.14,9V8h8.09V9Zm8.09,1.11V11a.11.11,0,0,1-.12.11H12.25a.11.11,0,0,1-.11-.11v-.88Zm1.32,24.77V30.27h4.6Zm5.39-5.72h-5.5a1,1,0,0,0-1,1v5.53h-15V10.11H11V11a1.24,1.24,0,0,0,1.23,1.23h7.86A1.23,1.23,0,0,0,21.34,11v-.88h2.42a7.49,7.49,0,0,0,1.65,5.55,12,12,0,0,0,1.53,1.64V29.16Z" transform="translate(-2.07 -0.98)"/></svg>