<svg xmlns="http://www.w3.org/2000/svg" version="1.1" xmlns:xlink="http://www.w3.org/1999/xlink" xmlns:svgjs="http://svgjs.com/svgjs" width="512" height="512" x="0" y="0" viewBox="0 0 24 24" style="enable-background:new 0 0 512 512" xml:space="preserve" class=""><g><g fill="#000"><path d="M2 8.976c0-1.253.066-2.328.266-3.227.202-.91.554-1.698 1.17-2.314s1.403-.967 2.313-1.17C6.648 2.066 7.723 2 8.976 2H9a2 2 0 0 1 2 2v5a2 2 0 0 1-2 2H4a2 2 0 0 1-2-2zM22 15.024c0 1.253-.066 2.328-.266 3.227-.202.91-.554 1.698-1.17 2.314s-1.403.967-2.313 1.17c-.899.2-1.974.265-3.227.265H15a2 2 0 0 1-2-2v-5a2 2 0 0 1 2-2h5a2 2 0 0 1 2 2zM2 15.024c0 1.253.066 2.328.266 3.227.202.91.554 1.698 1.17 2.314s1.403.967 2.313 1.17c.899.2 1.974.265 3.227.265H9a2 2 0 0 0 2-2v-5a2 2 0 0 0-2-2H4a2 2 0 0 0-2 2zM22 8.976c0-1.253-.066-2.328-.266-3.227-.202-.91-.554-1.698-1.17-2.314s-1.403-.967-2.313-1.17c-.899-.2-1.974-.265-3.227-.265H15a2 2 0 0 0-2 2v5a2 2 0 0 0 2 2h5a2 2 0 0 0 2-2z" fill="#ffffff" data-original="#000000" class=""></path></g></g></svg>