<svg id="Layer_1" data-name="Layer 1" xmlns="http://www.w3.org/2000/svg" viewBox="0 0 125 125"><title>privacy</title><path d="M86.31,125H14.88A14.9,14.9,0,0,1,0,110.12V14.88A14.9,14.9,0,0,1,14.88,0h46A15,15,0,0,1,71.54,4.46L97,30.47a14.84,14.84,0,0,1,4.24,10.42V63.07a3,3,0,0,1-6,0V40.89a9,9,0,0,0-2.55-6.25l-25.41-26A9,9,0,0,0,60.89,6h-46A8.93,8.93,0,0,0,6,14.88v95.24a8.93,8.93,0,0,0,8.93,8.93H86.31a8.74,8.74,0,0,0,3.27-.64,3,3,0,1,1,2.27,5.5A14.44,14.44,0,0,1,86.31,125Z"/><path d="M97,38.69H77.38A14.9,14.9,0,0,1,62.5,23.81V3.9a3,3,0,1,1,6,0V23.81a8.93,8.93,0,0,0,8.93,8.93H97a3,3,0,1,1,0,5.95Zm-4.73,85.88a6,6,0,0,1-3.3-1l-9.56-6.38A44.54,44.54,0,0,1,59.52,80.06V75a6,6,0,0,1,4.59-5.78A89.25,89.25,0,0,0,89,57.93a5.94,5.94,0,0,1,6.45,0,89.19,89.19,0,0,0,24.92,11.25A6,6,0,0,1,125,75v5.1a44.56,44.56,0,0,1-19.88,37.15l-9.56,6.37A6,6,0,0,1,92.26,124.57Zm0-61.64A95.11,95.11,0,0,1,65.55,75l-.07,5.1a38.57,38.57,0,0,0,17.23,32.19l9.55,6.36,9.56-6.37a38.6,38.6,0,0,0,17.23-32.18V75a95.17,95.17,0,0,1-26.79-12Z"/><path d="M89.29,98.21a3,3,0,0,1-2.11-.87l-6-6a3,3,0,0,1,4.21-4.21L89.29,91l9.8-9.8a3,3,0,0,1,4.2,4.21l-11.9,11.9A3,3,0,0,1,89.29,98.21ZM44.64,29.76H20.83a3,3,0,0,1,0-6H44.64a3,3,0,1,1,0,6ZM62.5,47.62H20.83a3,3,0,0,1,0-5.95H62.5a3,3,0,1,1,0,5.95Zm6,17.86H20.83a3,3,0,0,1,0-6H68.45a3,3,0,1,1,0,6ZM50.6,83.33H20.83a3,3,0,0,1,0-6H50.6a3,3,0,0,1,0,6Zm0,17.86H20.83a3,3,0,0,1,0-6H50.6a3,3,0,0,1,0,6Z"/></svg>