<svg id="Layer_1" data-name="Layer 1" xmlns="http://www.w3.org/2000/svg" viewBox="0 0 30.3 31.24"><title>project</title><path d="M.57,8.58A.45.45,0,0,0,1,8.13V4.46a.69.69,0,0,1,.69-.69h22.7a.69.69,0,0,1,.69.69V15.67a.46.46,0,1,0,.92,0V4.46a1.61,1.61,0,0,0-1.61-1.61H1.71A1.61,1.61,0,0,0,.11,4.46V8.13a.45.45,0,0,0,.46.45Zm24,15.17a2.38,2.38,0,1,0-2.38,2.37,2.39,2.39,0,0,0,2.38-2.37Zm-3.84,0a1.46,1.46,0,1,1,1.46,1.46A1.46,1.46,0,0,1,20.74,23.75Z" transform="translate(-0.11 -2.85)"/><path d="M28.8,28.78H26v-.73a1.28,1.28,0,0,0,1.54-.57l.55-1a1.28,1.28,0,0,0-.47-1.75l-.5-.29a4.49,4.49,0,0,0,.06-.73,4.4,4.4,0,0,0-.06-.73l.5-.29A1.28,1.28,0,0,0,28.11,21l-.55-1A1.28,1.28,0,0,0,26,19.45V17.81a.46.46,0,0,0-.92,0v1.87A4.75,4.75,0,0,0,24,19.1v-.58a1.28,1.28,0,0,0-1.29-1.28h-1.1a1.28,1.28,0,0,0-1.29,1.28v.58a5.11,5.11,0,0,0-1.26.73l-.51-.29a1.29,1.29,0,0,0-1.75.47l-.55,1a1.28,1.28,0,0,0,.47,1.76l.5.29a4.4,4.4,0,0,0-.06.73,4.49,4.49,0,0,0,.06.73l-.5.29a1.27,1.27,0,0,0-.47,1.75l.55,1a1.29,1.29,0,0,0,1.75.47l.51-.29a4.82,4.82,0,0,0,1.26.73v.39H6.11A1.61,1.61,0,0,0,4.5,30.39v1a1.76,1.76,0,0,1-1.69,1.77H2.76A1.74,1.74,0,0,1,1,31.43V10.26a.46.46,0,1,0-.91,0V31.43a2.61,2.61,0,0,0,.78,1.88,2.63,2.63,0,0,0,1.87.78H13.15a.46.46,0,1,0,0-.92H4.75a2.71,2.71,0,0,0,.67-1.77v-1a.69.69,0,0,1,.69-.7H28.8a.69.69,0,0,1,.69.7v1a1.72,1.72,0,0,1-1.73,1.74H15.29a.46.46,0,0,0,0,.92H27.76a2.66,2.66,0,0,0,2.65-2.66v-1a1.61,1.61,0,0,0-1.61-1.61Zm-3.7,0H24v-.39a4.38,4.38,0,0,0,1.06-.58ZM21,27.64a4.23,4.23,0,0,1-1.51-.87.44.44,0,0,0-.53-.06l-.78.45a.38.38,0,0,1-.51-.14l-.55-1a.37.37,0,0,1,.13-.5l.79-.45a.44.44,0,0,0,.21-.49,4.28,4.28,0,0,1-.09-.87,4.21,4.21,0,0,1,.09-.87.45.45,0,0,0-.21-.5l-.79-.45a.37.37,0,0,1-.13-.5l.55-1a.37.37,0,0,1,.51-.13l.78.45a.45.45,0,0,0,.53-.06A4.09,4.09,0,0,1,21,19.86a.46.46,0,0,0,.32-.44v-.9a.37.37,0,0,1,.37-.37h1.1a.37.37,0,0,1,.37.37v.9a.46.46,0,0,0,.32.44,4.09,4.09,0,0,1,1.51.87.45.45,0,0,0,.53.06l.78-.45a.37.37,0,0,1,.51.13l.55,1a.37.37,0,0,1-.13.5l-.78.45a.46.46,0,0,0-.22.5,4.21,4.21,0,0,1,.09.87,4.28,4.28,0,0,1-.09.87.45.45,0,0,0,.22.49l.78.45a.4.4,0,0,1,.17.23.36.36,0,0,1,0,.27l-.55,1a.37.37,0,0,1-.51.14l-.78-.45a.44.44,0,0,0-.53.06,4.23,4.23,0,0,1-1.51.87.45.45,0,0,0-.32.43v.71H21.28v-.71a.45.45,0,0,0-.32-.43ZM14.15,9.73a1.13,1.13,0,0,0,.58-1V6.07a.46.46,0,1,0-.92,0V8.74a.2.2,0,0,1-.11.19c-.12.07-.27-.07-.29-.08a.45.45,0,0,0-.64,0,.46.46,0,0,0,0,.64,1.29,1.29,0,0,0,.85.35,1,1,0,0,0,.51-.14Zm3.11-3.17a.46.46,0,1,0,0-.92H15.87a.47.47,0,0,0-.46.46h0V9.41a.47.47,0,0,0,.46.46h1.39a.46.46,0,0,0,0-.92h-.93V8.21h.83a.46.46,0,1,0,0-.91h-.83V6.56Zm2.8,0a1.28,1.28,0,0,1,.68.2.44.44,0,0,0,.63-.11A.46.46,0,0,0,21.26,6h0a2.13,2.13,0,1,0-1.19,3.89,1.82,1.82,0,0,0,1.22-.45l.18-.19a.46.46,0,0,0-.05-.64.47.47,0,0,0-.65.05h0l-.09.09a.9.9,0,0,1-.61.21,1.21,1.21,0,1,1,0-2.42Zm4.53-.46a.47.47,0,0,0-.46-.46H22.29a.46.46,0,1,0,0,.92h.46V9.41a.46.46,0,1,0,.91,0V6.53h.47a.47.47,0,0,0,.46-.46ZM5.3,9.41a.46.46,0,1,0,.91,0V8.57l1,1.14a.46.46,0,0,0,.69-.6L7.1,8.19A1.33,1.33,0,0,0,8,6.94,1.36,1.36,0,0,0,6.65,5.61H5.76a.47.47,0,0,0-.46.46h0ZM6.65,6.53a.41.41,0,1,1,0,.82H6.22V6.53ZM2,9.41a.46.46,0,1,0,.91,0v-1h.47a1.4,1.4,0,1,0,0-2.8H2.48A.46.46,0,0,0,2,6.07H2ZM3.41,6.53a.49.49,0,1,1,0,1H2.94v-1Zm9.15,1.21a2.13,2.13,0,1,0-2.13,2.13A2.14,2.14,0,0,0,12.56,7.74Zm-3.34,0A1.21,1.21,0,1,1,10.43,9,1.21,1.21,0,0,1,9.22,7.74Z" transform="translate(-0.11 -2.85)"/><path d="M3.05,11.24a.46.46,0,0,0,.46.46H22.62a.46.46,0,1,0,0-.91H3.51a.46.46,0,0,0-.46.45Zm8.54,1.61H3.94A1.75,1.75,0,0,0,2.2,14.6v4.12a1.74,1.74,0,0,0,1.74,1.74h7.65a1.75,1.75,0,0,0,1.75-1.74V14.6A1.76,1.76,0,0,0,11.59,12.85Zm.83,5.87a.83.83,0,0,1-.83.83H3.94a.83.83,0,0,1-.83-.83V14.6a.83.83,0,0,1,.83-.83h7.65a.83.83,0,0,1,.83.83Zm11.51-3.64a.46.46,0,0,0-.46-.46H15a.46.46,0,1,0,0,.91h8.52A.46.46,0,0,0,23.93,15.08Zm-3.29,1.76a.46.46,0,0,0-.46-.46H15a.46.46,0,0,0,0,.92h5.23A.46.46,0,0,0,20.64,16.84ZM2.2,22.08a.45.45,0,0,0,.45.45H15a.46.46,0,1,0,0-.91H2.65A.45.45,0,0,0,2.2,22.08Zm13.21,3.53a.46.46,0,0,0-.46-.46H2.65a.46.46,0,0,0,0,.91H15A.46.46,0,0,0,15.41,25.61ZM2.65,27a.46.46,0,0,0,0,.92H8.56a.46.46,0,1,0,0-.92ZM16.2,23.84a.47.47,0,0,0-.46-.46H2.65a.46.46,0,0,0,0,.92H15.74A.47.47,0,0,0,16.2,23.84Z" transform="translate(-0.11 -2.85)"/><path d="M7.08,16.26H4.22a.47.47,0,0,0-.46.46v1.83a.46.46,0,0,0,.46.45H7.07a.45.45,0,0,0,.46-.45h0V16.72a.46.46,0,0,0-.45-.46Zm-.46,1.83H4.68v-.91H6.62v.91Zm4.69-3.51H8.46A.46.46,0,0,0,8,15v3.51a.46.46,0,0,0,.46.45h2.85a.45.45,0,0,0,.46-.45h0V15a.45.45,0,0,0-.46-.46Zm-.45,3.51H8.92v-2.6h1.94Z" transform="translate(-0.11 -2.85)"/></svg>