<svg id="Layer_1" data-name="Layer 1" xmlns="http://www.w3.org/2000/svg" viewBox="0 0 125 119.43"><title>settings</title><path d="M65.57,72.06a3.11,3.11,0,0,0-3.17,3c0,7.85-6.66,14.21-14.88,14.21S32.65,82.94,32.65,75.09s6.66-14.21,14.87-14.21a3,3,0,1,0,0-6.07C35.8,54.82,26.3,63.9,26.3,75.09s9.5,20.28,21.22,20.28,21.23-9.08,21.23-20.28A3.11,3.11,0,0,0,65.57,72.06Z" transform="translate(0 -1.06)"/><path d="M90.79,82.07a3.18,3.18,0,0,0-3.68-2.47l-6.64,1.12A3.11,3.11,0,0,0,78,82.92a28.88,28.88,0,0,1-3.12,7.17A2.92,2.92,0,0,0,75,93.36l3.87,5.28a1.79,1.79,0,0,1-.21,2.37l-4,3.81a2,2,0,0,1-2.48.21l-5.52-3.71a3.29,3.29,0,0,0-3.42-.14,32.32,32.32,0,0,1-7.51,3,3.07,3.07,0,0,0-2.3,2.4l-1.18,6.34a1.92,1.92,0,0,1-1.91,1.53H44.7a1.9,1.9,0,0,1-1.9-1.53l-1.17-6.34a3.08,3.08,0,0,0-2.3-2.41,32.4,32.4,0,0,1-7.52-3,3.29,3.29,0,0,0-3.41.15L22.88,105a2,2,0,0,1-2.48-.21l-4-3.8a1.79,1.79,0,0,1-.21-2.37l3.87-5.28a2.9,2.9,0,0,0,.15-3.27,28.76,28.76,0,0,1-3.11-7.18,3.14,3.14,0,0,0-2.52-2.2L8,79.6a1.86,1.86,0,0,1-1.6-1.82V72.4A1.86,1.86,0,0,1,8,70.58l6.64-1.12a3.11,3.11,0,0,0,2.52-2.2,28.92,28.92,0,0,1,3.11-7.18,2.9,2.9,0,0,0-.15-3.27L16.2,51.55a1.79,1.79,0,0,1,.21-2.37l4-3.81a2,2,0,0,1,2.48-.21l5.53,3.71a3.27,3.27,0,0,0,3.41.14,32.4,32.4,0,0,1,7.52-3,3.07,3.07,0,0,0,2.3-2.4l1.17-6.35a3.06,3.06,0,0,0-2.58-3.51,3.18,3.18,0,0,0-3.68,2.47l-.82,4.5a38.06,38.06,0,0,0-5.27,2.1l-3.92-2.63a8.56,8.56,0,0,0-10.62.89l-4,3.79A7.66,7.66,0,0,0,11,55l2.75,3.75a34.64,34.64,0,0,0-2.2,5l-4.71.79A8,8,0,0,0,0,72.4v5.38a8,8,0,0,0,6.85,7.8l4.71.79a35.12,35.12,0,0,0,2.2,5L11,95.15a7.64,7.64,0,0,0,.93,10.14l4,3.81a8.58,8.58,0,0,0,10.62.88l3.9-2.62a40.87,40.87,0,0,0,5.28,2.1l.82,4.5a8.19,8.19,0,0,0,8.17,6.54h5.64A8.18,8.18,0,0,0,58.5,114l.83-4.5a40.74,40.74,0,0,0,5.27-2.1L68.52,110a8.55,8.55,0,0,0,10.61-.88l4-3.81a7.65,7.65,0,0,0,.93-10.14L81.3,91.4a35.64,35.64,0,0,0,2.2-5l4.71-.79A3.06,3.06,0,0,0,90.79,82.07Z" transform="translate(0 -1.06)"/><path d="M119,28.59,115.72,28a27.46,27.46,0,0,0-1.46-3.34l1.95-2.63a6.66,6.66,0,0,0-.8-8.82l-3.15-3A7.43,7.43,0,0,0,103,9.46l-2.76,1.85a31.29,31.29,0,0,0-3.51-1.4l-.57-3.16A7.11,7.11,0,0,0,89.1,1.06H84.66a7.12,7.12,0,0,0-7.1,5.7L77,9.93a28.69,28.69,0,0,0-3.5,1.4L70.72,9.46a7.44,7.44,0,0,0-9.23.77l-3.14,3a6.66,6.66,0,0,0-.81,8.83l1.94,2.64A27.46,27.46,0,0,0,58,28l-3.31.55a7,7,0,0,0-6,6.78v4.24a7,7,0,0,0,6,6.78l3.31.55a28.57,28.57,0,0,0,1.47,3.35l-1.94,2.64a6.66,6.66,0,0,0,.8,8.82l3.14,3a7.43,7.43,0,0,0,9.23.77l2.77-1.85a28.69,28.69,0,0,0,3.5,1.4l.58,3.17a7.1,7.1,0,0,0,7.1,5.69h4.44a7.09,7.09,0,0,0,7.08-5.7l.58-3.17a29.49,29.49,0,0,0,3.51-1.4L103,65.51a7.42,7.42,0,0,0,9.23-.77l3.15-3a6.65,6.65,0,0,0,.8-8.81l-1.94-2.65a27.46,27.46,0,0,0,1.46-3.34l3.33-.56A7,7,0,0,0,125,39.61V35.37A7,7,0,0,0,119,28.59Zm-.39,11a.83.83,0,0,1-.7.8l-5.24.88a3.11,3.11,0,0,0-2.51,2.2,22.93,22.93,0,0,1-2.39,5.5,2.9,2.9,0,0,0,.15,3.27L111,56.43a.78.78,0,0,1-.09,1l-3.14,3a.9.9,0,0,1-1.09.08l-4.36-2.92a3.29,3.29,0,0,0-3.42-.14,25.15,25.15,0,0,1-5.76,2.28,3.09,3.09,0,0,0-2.29,2.41l-.92,5a.84.84,0,0,1-.84.67H84.66a.83.83,0,0,1-.84-.67l-.92-5a3.12,3.12,0,0,0-2.31-2.41,24.27,24.27,0,0,1-5.76-2.28,3.29,3.29,0,0,0-3.42.15l-4.34,2.91A.89.89,0,0,1,66,60.46l-3.14-3a.79.79,0,0,1-.1-1.05l3.06-4.16A2.93,2.93,0,0,0,66,49a21.84,21.84,0,0,1-2.39-5.5A3.14,3.14,0,0,0,61,41.29l-5.24-.87a.82.82,0,0,1-.7-.81V35.37a.82.82,0,0,1,.7-.8L61,33.69a3.14,3.14,0,0,0,2.51-2.2A22.44,22.44,0,0,1,65.94,26a2.92,2.92,0,0,0-.15-3.26l-3.05-4.16a.81.81,0,0,1,.1-1l3.14-3a.89.89,0,0,1,1.1-.09l4.35,2.92a3.29,3.29,0,0,0,3.42.14,24.79,24.79,0,0,1,5.76-2.28,3.1,3.1,0,0,0,2.3-2.41l.92-5a.83.83,0,0,1,.83-.66H89.1a.84.84,0,0,1,.84.67l.91,5a3.12,3.12,0,0,0,2.31,2.41,24.7,24.7,0,0,1,5.76,2.28,3.27,3.27,0,0,0,3.41-.14l4.36-2.92a.87.87,0,0,1,1.09.09l3.15,3a.79.79,0,0,1,.08,1L108,22.73a2.88,2.88,0,0,0-.15,3.26,22.82,22.82,0,0,1,2.39,5.51,3.12,3.12,0,0,0,2.51,2.19l5.24.88a.83.83,0,0,1,.7.8v4.25Z" transform="translate(0 -1.06)"/><path d="M86.87,23c-8.37,0-15.16,6.49-15.16,14.49S78.5,52,86.87,52,102,45.49,102,37.49,95.25,23,86.87,23Zm0,22.91a8.63,8.63,0,0,1-8.81-8.42,8.63,8.63,0,0,1,8.81-8.43h0a8.63,8.63,0,0,1,8.82,8.42,8.63,8.63,0,0,1-8.82,8.42Z" transform="translate(0 -1.06)"/></svg>