<svg id="Layer_1" data-name="Layer 1" xmlns="http://www.w3.org/2000/svg" viewBox="0 0 39.78 39.84"><title>stats</title><path d="M33.9,0a3.49,3.49,0,0,0-2.8,5.59l-5.71,6.19a3.32,3.32,0,0,0-.83-.11,3.54,3.54,0,0,0-1.94.59l-4.07-3a3.38,3.38,0,0,0,.17-1,3.5,3.5,0,1,0-7,0,3.39,3.39,0,0,0,.18,1l-4.08,3a3.66,3.66,0,1,0,1.39,1.88l4.07-3.06a3.47,3.47,0,0,0,3.88,0l4.07,3.06a3.27,3.27,0,0,0-.17,1,3.5,3.5,0,1,0,6.3-2.08l5.71-6.2A3.49,3.49,0,1,0,34.73.1,3.31,3.31,0,0,0,33.9,0ZM17.56,18.68H12.89a1.16,1.16,0,0,0-1.17,1.16h0V35.17h7V19.84a1.16,1.16,0,0,0-1.16-1.16Zm9.34,4.67H22.23a1.16,1.16,0,0,0-1.17,1.16h0V35.17h7V24.51a1.16,1.16,0,0,0-1.16-1.16ZM36.24,14H31.56a1.16,1.16,0,0,0-1.16,1.16h0v20h7v-20A1.16,1.16,0,0,0,36.24,14Zm-28,11.67H3.55a1.17,1.17,0,0,0-1.17,1.17v8.32h7V26.85a1.17,1.17,0,0,0-1.17-1.17ZM38.65,37.51H1.14a1.17,1.17,0,0,0,0,2.33H38.65a1.17,1.17,0,0,0,0-2.33Z"/></svg>