<svg id="Layer_1" data-name="Layer 1" xmlns="http://www.w3.org/2000/svg" viewBox="0 0 100 113.78"><title>delete</title><path d="M6.93,33.33l5.91,71.28a10,10,0,0,0,10,9.17H77.2a10,10,0,0,0,10-9.17l5.91-71.28Zm26.4,67.11A3.33,3.33,0,0,1,30,97.32L26.67,43.54A3.33,3.33,0,0,1,29.79,40a3.28,3.28,0,0,1,3.54,3.11L36.66,96.9a3.33,3.33,0,0,1-3.33,3.54Zm20-3.33a3.33,3.33,0,1,1-6.66,0V43.33a3.33,3.33,0,0,1,6.66,0Zm20-53.57L70,97.32a3.33,3.33,0,1,1-6.65-.42l3.33-53.77A3.4,3.4,0,0,1,70.21,40a3.33,3.33,0,0,1,3.12,3.53Zm20-30.21h-20V10a10,10,0,0,0-10-10H36.67a10,10,0,0,0-10,10v3.33h-20a6.67,6.67,0,0,0,0,13.34H93.33a6.67,6.67,0,0,0,0-13.34Zm-26.66,0H33.33V10a3.34,3.34,0,0,1,3.34-3.33H63.33A3.34,3.34,0,0,1,66.67,10Z"/></svg>