<svg id="Layer_1" data-name="Layer 1" xmlns="http://www.w3.org/2000/svg" viewBox="0 0 40 23.24"><title>truck</title><path d="M14.45,27.14a.82.82,0,0,0-.82.81v0a.82.82,0,0,0,.82.81.82.82,0,0,0,0-1.64Z" transform="translate(0 -8.54)"/><path d="M6.38,27.14a.82.82,0,0,0-.82.81v0a.82.82,0,0,0,.82.81.82.82,0,0,0,0-1.64Z" transform="translate(0 -8.54)"/><path d="M39,26.05V20.18A2,2,0,0,0,38.69,19L35.8,14.57a2.06,2.06,0,0,0-1.75-1H28V9.23a.69.69,0,0,0-.7-.69H1.48a.7.7,0,0,0-.7.69v16.9A1.39,1.39,0,0,0,0,27.38v1.15a1.39,1.39,0,0,0,1.39,1.39h1.7a3.82,3.82,0,0,0,6.56,0h1.52a3.81,3.81,0,0,0,6.55,0H29.45a3.81,3.81,0,0,0,6.55,0h2.61A1.39,1.39,0,0,0,40,28.53V27.38A1.4,1.4,0,0,0,39,26.05ZM1.4,28.53V27.38h1.2a3.7,3.7,0,0,0,0,1.15Zm5,1.85A2.43,2.43,0,1,1,8.8,28,2.42,2.42,0,0,1,6.37,30.38Zm4.29-1.86h-.5a4.35,4.35,0,0,0,0-1.14h.5A3.63,3.63,0,0,0,10.66,28.52Zm3.78,1.86A2.43,2.43,0,1,1,16.87,28,2.43,2.43,0,0,1,14.44,30.38Zm0-6.25A3.81,3.81,0,0,0,11.17,26H9.65a3.83,3.83,0,0,0-6.56,0H2.18v-16H26.61V26H17.72A3.83,3.83,0,0,0,14.44,24.13Zm14.5,4.39H18.23a3.63,3.63,0,0,0,0-1.14H28.94A4.35,4.35,0,0,0,28.94,28.52Zm3.79,1.86A2.43,2.43,0,1,1,35.15,28,2.43,2.43,0,0,1,32.73,30.38Zm0-6.25A3.83,3.83,0,0,0,29.45,26H28V15h6a.64.64,0,0,1,.57.31l2.9,4.47a.65.65,0,0,1,.11.38v.95h-.45a.7.7,0,1,0,0,1.4h.45V26H36A3.81,3.81,0,0,0,32.73,24.13Zm3.78,4.39a3.63,3.63,0,0,0,0-1.14H38.6v1.14Z" transform="translate(0 -8.54)"/><path d="M5.13,11a.7.7,0,0,0-.7.7V22.8a.7.7,0,0,0,1.4,0V11.72A.7.7,0,0,0,5.13,11Z" transform="translate(0 -8.54)"/><path d="M23.66,11a.7.7,0,0,0-.7.7V22.8a.7.7,0,0,0,1.4,0V11.72A.7.7,0,0,0,23.66,11Z" transform="translate(0 -8.54)"/><path d="M36.6,19.39,34.27,15.8a.7.7,0,0,0-.58-.32H29.16a.7.7,0,0,0-.7.7v3.59a.7.7,0,0,0,.7.7H36a.71.71,0,0,0,.62-.37A.7.7,0,0,0,36.6,19.39Zm-6.74-.32V16.88h3.45l1.42,2.19Z" transform="translate(0 -8.54)"/><path d="M30.31,21.13H29.16a.7.7,0,0,0,0,1.4h1.15a.7.7,0,0,0,0-1.4Z" transform="translate(0 -8.54)"/><path d="M20.57,11a.7.7,0,0,0-.7.7V22.8a.7.7,0,0,0,1.4,0V11.72A.7.7,0,0,0,20.57,11Z" transform="translate(0 -8.54)"/><path d="M32.73,27.13a.82.82,0,1,0,.81.82A.82.82,0,0,0,32.73,27.13Z" transform="translate(0 -8.54)"/><path d="M8.22,11a.7.7,0,0,0-.7.7V22.8a.7.7,0,0,0,1.4,0V11.72A.7.7,0,0,0,8.22,11Z" transform="translate(0 -8.54)"/><path d="M11.31,11a.7.7,0,0,0-.7.7V22.8a.7.7,0,1,0,1.4,0V11.72A.7.7,0,0,0,11.31,11Z" transform="translate(0 -8.54)"/><path d="M17.48,11a.7.7,0,0,0-.7.7V22.8a.7.7,0,0,0,1.4,0V11.72A.7.7,0,0,0,17.48,11Z" transform="translate(0 -8.54)"/><path d="M14.4,11a.7.7,0,0,0-.7.7V22.8a.7.7,0,1,0,1.39,0V11.72A.69.69,0,0,0,14.4,11Z" transform="translate(0 -8.54)"/></svg>