<svg id="Layer_1" data-name="Layer 1" xmlns="http://www.w3.org/2000/svg" viewBox="0 0 36.79 36.79"><title>truck_load</title><path d="M21.84,8.22H8.63a.52.52,0,0,0-.52.52v1.49a.52.52,0,0,0,.52.52H21.84a.52.52,0,0,0,.52-.52h0V8.74a.52.52,0,0,0-.52-.52Zm-.52,1.49H9.15V9.26H21.32v.45Zm14.61,20a.55.55,0,0,0,0-.54l-1.73-2.67a.52.52,0,0,0-.44-.24H30.36a.52.52,0,0,0-.52.52v2.68a.52.52,0,0,0,.52.52h5.11a.54.54,0,0,0,.46-.27Zm-5.05-.77V27.25h2.58l1,1.64Zm6.84,5.2V29.71a1.48,1.48,0,0,0-.25-.84l-2.16-3.34a1.52,1.52,0,0,0-1.3-.71h-4.5V21.55A.53.53,0,0,0,29,21H27.59v-8h.7a.52.52,0,0,0,.52-.53v-2a.53.53,0,0,0-.23-.44L15.52,1.66a.5.5,0,0,0-.57,0l-13,8.4a.51.51,0,0,0-.24.44v2a.52.52,0,0,0,.52.53h.7V28.21a.52.52,0,0,0,.53.52h5.8v5.42a1,1,0,0,0-.59.93v.86a1,1,0,0,0,1,1h1.27a2.86,2.86,0,0,0,4.89,0H17a2.86,2.86,0,0,0,4.89,0h8.74a2.86,2.86,0,0,0,4.89,0h1.94a1,1,0,0,0,1-1v-.86a1,1,0,0,0-.73-1ZM2.7,10.78,15.24,2.71l12.53,8.07V12H2.7Zm1.23,2.28H26.55v8H25.43V14.76a.52.52,0,0,0-.52-.52H5.56a.52.52,0,0,0-.52.52V27.69H3.93ZM6.08,27.69V15.28H24.39V21H9.73a.52.52,0,0,0-.52.52v6.14Zm3.59,8.25v-.86h.9a2.48,2.48,0,0,0,0,.86Zm3.71,1.38a1.81,1.81,0,1,1,1.81-1.81A1.81,1.81,0,0,1,13.38,37.32Zm2.82-1.39a3,3,0,0,0,0-.85h.37a3,3,0,0,0,0,.85Zm3.19,1.39a1.81,1.81,0,1,1,1.81-1.81A1.82,1.82,0,0,1,19.39,37.32Zm0-4.66A2.85,2.85,0,0,0,17,34H15.82a2.86,2.86,0,0,0-4.89,0h-.68v-12H28.46V34H21.84a2.85,2.85,0,0,0-2.45-1.38Zm2.82,3.27a2.43,2.43,0,0,0,0-.85h8a3,3,0,0,0,0,.85ZM33,37.32a1.81,1.81,0,1,1,1.81-1.81A1.82,1.82,0,0,1,33,37.32Zm0-4.66A2.85,2.85,0,0,0,30.58,34H29.51V25.86H34a.49.49,0,0,1,.43.24l2.16,3.33a.48.48,0,0,1,.08.28v.71h-.34a.52.52,0,0,0,0,1h.34V34H35.47A2.85,2.85,0,0,0,33,32.66Zm2.82,3.27a2.43,2.43,0,0,0,0-.85H37.4v.85Zm-2.21-.42a.61.61,0,0,1-.61.61.61.61,0,1,1,0-1.22A.61.61,0,0,1,33.63,35.51ZM20,35.51a.59.59,0,0,1-.6.61.61.61,0,0,1-.62-.6h0a.61.61,0,0,1,1.22,0Zm-6,0a.61.61,0,0,1-.61.61.6.6,0,0,1-.61-.6h0a.6.6,0,0,1,.61-.6A.62.62,0,0,1,14,35.51Zm7.67-3.32a.52.52,0,0,1-.52-.52V23.4a.52.52,0,0,1,1,0v8.27A.52.52,0,0,1,21.66,32.19ZM13,23.4v8.27a.52.52,0,0,1-1,0V23.4a.52.52,0,0,1,1,0Zm10.47,8.27V23.4a.52.52,0,0,1,1,0v8.27a.52.52,0,0,1-1,0ZM19.88,23.4v8.27a.52.52,0,0,1-.52.52.52.52,0,0,1-.52-.52V23.4a.52.52,0,0,1,.52-.52A.53.53,0,0,1,19.88,23.4Zm-2.3,0v8.27a.53.53,0,0,1-1,0V23.4a.53.53,0,0,1,1,0Zm-2.31,0v8.27a.52.52,0,0,1-1,0V23.4a.52.52,0,0,1,1,0Zm10.47,8.27V23.4a.53.53,0,0,1,1.05,0v8.27a.53.53,0,0,1-1.05,0Zm6-.73a.52.52,0,0,1-.53.52h-.86a.52.52,0,0,1,0-1h.86A.52.52,0,0,1,31.75,30.94Z" transform="translate(-1.66 -1.57)"/></svg>