<svg id="Layer_1" data-name="Layer 1" xmlns="http://www.w3.org/2000/svg" xmlns:xlink="http://www.w3.org/1999/xlink" viewBox="0 0 250 250"><defs><clipPath id="clip-path" transform="translate(0 0)"><rect width="250" height="250" fill="none"/></clipPath></defs><title>user_edit</title><g clip-path="url(#clip-path)"><path d="M100.59,250h-42A58.66,58.66,0,0,1,0,191.41V58.59A58.66,58.66,0,0,1,58.59,0H191.41A58.66,58.66,0,0,1,250,58.59v48.83a9.77,9.77,0,1,1-19.53,0V58.59a39.1,39.1,0,0,0-39.06-39.06H58.59A39.1,39.1,0,0,0,19.53,58.59V191.41a39.1,39.1,0,0,0,39.06,39.06h42a9.77,9.77,0,0,1,0,19.53Z" transform="translate(0 0)"/><path d="M84.47,97.66a29.3,29.3,0,1,1,29.3-29.3A29.33,29.33,0,0,1,84.47,97.66Zm0-39.07a9.77,9.77,0,1,0,9.77,9.77A9.78,9.78,0,0,0,84.47,58.59Z" transform="translate(0 0)"/><path d="M201.17,104.49H140.63a9.77,9.77,0,1,1,0-19.53h60.54a9.77,9.77,0,1,1,0,19.53Z" transform="translate(0 0)"/><path d="M128.91,172.85H57.62a9.77,9.77,0,1,1,0-19.53h71.29a9.77,9.77,0,0,1,0,19.53Z" transform="translate(0 0)"/><path d="M89.84,207H57.62a9.77,9.77,0,1,1,0-19.53H89.84a9.77,9.77,0,1,1,0,19.53Z" transform="translate(0 0)"/><path d="M139.65,250a9.76,9.76,0,0,1-9.58-11.68l5.53-27.67a70.39,70.39,0,0,1,19.32-36.09l34.23-34.24a35.65,35.65,0,0,1,50.41,0h0a35.65,35.65,0,0,1,0,50.41L205.33,225a70.38,70.38,0,0,1-36.1,19.32l-27.67,5.53A9.52,9.52,0,0,1,139.65,250Zm74.71-100.59a16,16,0,0,0-11.4,4.72l-34.23,34.24a50.82,50.82,0,0,0-14,26.11l-2.66,13.31,13.3-2.66a51,51,0,0,0,26.12-14l34.23-34.23a16.11,16.11,0,0,0,0-22.79h0A16,16,0,0,0,214.36,149.41Z" transform="translate(0 0)"/><path d="M201.17,70.31H140.63a9.77,9.77,0,1,1,0-19.53h60.54a9.77,9.77,0,1,1,0,19.53Z" transform="translate(0 0)"/><path d="M58.6,136.72a9.77,9.77,0,0,1-6.58-17A43.49,43.49,0,0,1,81.37,108.4h6.2a43.47,43.47,0,0,1,29.35,11.33,9.77,9.77,0,0,1-13.14,14.45,24,24,0,0,0-16.21-6.25h-6.2a24,24,0,0,0-16.2,6.25A9.75,9.75,0,0,1,58.6,136.72Z" transform="translate(0 0)"/></g></svg>