<svg id="Layer_1" data-name="Layer 1" xmlns="http://www.w3.org/2000/svg" viewBox="0 0 36.81 36.81"><title>warehouse</title><path d="M38,11.58,20.24,1.15a.63.63,0,0,0-.61,0L1.84,11a.6.6,0,0,0-.32.53V37.26a.62.62,0,0,0,.61.62H5.2a.62.62,0,0,0,.62-.62h0V15.79H34V37.26a.61.61,0,0,0,.61.62h3.07a.61.61,0,0,0,.61-.62h0V12.11a.6.6,0,0,0-.3-.53Zm-.92,25.07H35.27V15.18a.62.62,0,0,0-.62-.62H5.2a.61.61,0,0,0-.61.62V36.65H2.75V11.86L19.92,2.38,37.11,12.46V36.65Z" transform="translate(-1.52 -1.06)"/><path d="M32.2,29.29H24.84a.61.61,0,0,0-.62.61h0v7.36a.62.62,0,0,0,.62.62H32.2a.61.61,0,0,0,.61-.62h0V29.9a.61.61,0,0,0-.61-.61Zm-.61,7.36H25.45V30.51h6.14Z" transform="translate(-1.52 -1.06)"/><path d="M29.13,29.9v1.84H27.9V29.9H26.68v2.45a.61.61,0,0,0,.61.62h2.45a.62.62,0,0,0,.62-.61h0V29.9Zm-4.29-.61H17.47a.61.61,0,0,0-.61.61h0v7.36a.61.61,0,0,0,.61.62h7.37a.62.62,0,0,0,.61-.62h0V29.9a.61.61,0,0,0-.61-.61Zm-.62,7.36H18.09V30.51h6.13Z" transform="translate(-1.52 -1.06)"/><path d="M21.77,29.9v1.84H20.54V29.9H19.31v2.45a.62.62,0,0,0,.62.62h2.45a.62.62,0,0,0,.62-.61h0V29.9Zm10.43-8H24.84a.62.62,0,0,0-.62.62h0V29.9a.61.61,0,0,0,.62.61H32.2a.61.61,0,0,0,.61-.61h0V22.54a.62.62,0,0,0-.61-.62Zm-.61,7.37H25.45V23.15h6.14Z" transform="translate(-1.52 -1.06)"/><path d="M29.13,22.54v1.84H27.9V22.54H26.68V25a.61.61,0,0,0,.61.62h2.45a.62.62,0,0,0,.62-.62h0V22.54ZM5.2,19.47H34.65V20.7H5.2ZM5.2,17H34.65v1.22H5.2ZM23,9.65H16.86a.61.61,0,0,0-.61.62v2.45a.62.62,0,0,0,.61.62H23a.62.62,0,0,0,.61-.62h0V10.27A.62.62,0,0,0,23,9.65Zm-.62,2.46H17.47V10.88h4.91Z" transform="translate(-1.52 -1.06)"/></svg>